<?xml version="1.0" standalone="no"?>
<!DOCTYPE svg PUBLIC "-//W3C//DTD SVG 20010904//EN"
 "http://www.w3.org/TR/2001/REC-SVG-20010904/DTD/svg10.dtd">
<svg version="1.0" xmlns="http://www.w3.org/2000/svg"
 width="896.000000pt" height="896.000000pt" viewBox="0 0 896.000000 896.000000"
 preserveAspectRatio="xMidYMid meet">
<metadata>
Created by potrace 1.14, written by Peter Selinger 2001-2017
</metadata>
<g transform="translate(0.000000,896.000000) scale(0.100000,-0.100000)"
fill="#000000" stroke="none">
<path d="M6056 8953 c-1 -1 -19 -5 -40 -9 -21 -3 -48 -8 -60 -10 -11 -2 -37
-7 -56 -10 -19 -3 -41 -11 -47 -16 -7 -6 -13 -8 -13 -5 0 14 -238 -77 -360
-137 -63 -31 -193 -108 -208 -123 -7 -7 -19 -13 -27 -13 -7 0 -15 -3 -17 -7
-1 -5 -46 -40 -98 -80 -146 -109 -274 -239 -378 -383 -34 -47 -66 -90 -70 -95
-7 -9 -42 -67 -79 -130 -6 -11 -28 -54 -48 -95 -20 -41 -42 -86 -49 -100 -7
-14 -25 -61 -41 -105 -15 -44 -30 -87 -33 -95 -3 -8 -7 -19 -7 -25 -1 -5 -5
-17 -8 -25 -5 -15 -14 -55 -21 -96 -2 -11 -10 -47 -16 -80 -13 -57 -17 -318
-7 -379 2 -16 5 -38 6 -49 1 -17 8 -18 109 -12 59 3 121 8 137 11 210 36 430
121 610 235 22 14 42 28 43 33 2 4 8 7 14 7 11 0 159 111 194 145 11 11 41 39
66 61 25 23 78 82 119 130 41 49 77 91 82 92 4 2 7 10 7 18 0 8 5 14 10 14 6
0 10 7 10 15 0 8 5 15 10 15 6 0 10 6 10 14 0 8 4 16 8 18 12 4 130 205 144
245 7 18 16 33 20 33 4 0 8 8 8 18 0 10 4 22 9 27 7 8 44 98 47 115 0 3 5 16
11 30 29 70 78 259 86 336 2 17 6 34 8 39 17 32 14 405 -3 405 -4 0 -5 7 -2
15 5 12 -2 14 -36 12 -23 -1 -43 -3 -44 -4z"/>
<path d="M2658 6865 c-2 -1 -34 -6 -71 -10 -37 -3 -78 -8 -90 -11 -12 -2 -37
-7 -56 -10 -54 -9 -64 -11 -111 -25 -25 -7 -49 -13 -55 -15 -28 -6 -132 -38
-145 -44 -8 -5 -51 -22 -95 -40 -92 -37 -295 -142 -341 -176 -17 -13 -34 -24
-38 -24 -9 0 -146 -102 -235 -174 -80 -65 -270 -251 -311 -305 -14 -17 -36
-44 -50 -60 -14 -15 -32 -38 -40 -50 -8 -13 -20 -29 -27 -36 -24 -25 -159
-230 -182 -275 -12 -25 -26 -52 -31 -60 -64 -101 -199 -492 -223 -645 -3 -16
-7 -37 -10 -45 -3 -8 -8 -31 -10 -50 -3 -19 -10 -66 -16 -105 -13 -76 -16
-105 -28 -235 -10 -106 -10 -569 0 -670 4 -41 10 -101 13 -132 3 -32 7 -68 10
-80 2 -13 6 -43 9 -68 8 -64 29 -187 55 -315 28 -138 28 -139 30 -142 3 -3 2
-2 15 -58 5 -22 9 -42 10 -45 6 -18 17 -58 19 -71 2 -8 6 -21 9 -29 4 -8 8
-24 10 -35 2 -11 6 -27 9 -35 3 -8 20 -62 37 -120 34 -110 86 -261 101 -295 5
-11 19 -45 30 -75 12 -30 27 -68 35 -85 7 -16 25 -59 40 -95 15 -36 52 -117
83 -180 30 -63 55 -117 55 -120 -1 -3 8 -17 18 -32 10 -14 19 -33 19 -41 0 -9
4 -17 9 -19 5 -1 22 -30 39 -63 50 -100 280 -477 301 -495 3 -3 11 -13 16 -22
25 -43 219 -314 235 -328 3 -3 30 -36 60 -74 80 -101 114 -139 235 -261 105
-105 138 -134 230 -204 22 -16 52 -39 67 -50 14 -12 31 -21 37 -21 6 0 11 -4
11 -8 0 -5 55 -36 123 -70 121 -61 255 -106 352 -120 63 -8 285 -8 345 0 101
15 275 70 415 133 33 15 75 33 93 41 17 8 49 22 70 31 20 9 42 18 47 19 6 2
46 17 90 33 44 17 89 32 100 34 11 2 27 7 35 10 21 8 107 26 155 33 21 3 42 7
46 10 15 9 173 18 324 18 153 1 260 -6 335 -21 19 -3 45 -7 58 -7 12 -1 22 -4
22 -9 0 -4 3 -6 8 -5 8 2 98 -16 105 -22 1 -1 9 -3 17 -5 21 -4 159 -54 195
-70 28 -12 58 -25 175 -77 25 -11 69 -31 98 -44 29 -13 58 -24 65 -24 7 0 17
-4 22 -8 10 -9 105 -40 142 -47 10 -2 18 -4 18 -5 0 -1 9 -3 20 -5 11 -2 40
-6 65 -10 55 -10 283 -12 325 -3 17 3 48 9 70 13 54 9 165 49 245 87 220 105
460 305 680 567 25 30 50 59 56 65 20 22 140 180 212 280 87 122 75 104 172
251 43 66 83 125 88 131 5 5 15 21 22 34 7 14 28 48 47 77 18 29 33 56 32 59
0 4 3 10 8 13 9 6 47 69 89 146 11 22 35 66 52 97 39 72 102 195 104 205 1 5
16 37 34 73 48 98 74 158 74 169 0 6 4 11 8 11 4 0 15 21 25 46 16 44 16 47 0
60 -10 7 -24 14 -31 14 -7 0 -20 4 -30 10 -9 5 -58 29 -109 54 -115 56 -312
180 -343 215 -3 3 -27 24 -55 46 -59 48 -190 178 -231 231 -16 21 -40 51 -54
68 -14 17 -39 51 -55 76 -17 25 -32 47 -35 50 -20 18 -139 245 -170 325 -12
33 -28 74 -35 90 -7 17 -18 50 -25 75 -8 25 -15 50 -17 55 -1 6 -14 56 -27
113 -23 96 -30 143 -43 267 -10 107 -4 367 12 445 2 13 7 42 11 65 3 22 12 67
20 100 8 33 17 71 20 84 3 13 9 32 15 43 5 10 7 18 5 18 -3 0 3 20 14 45 11
25 17 45 15 45 -8 0 97 224 138 295 98 169 222 318 391 473 26 23 50 42 54 42
4 0 14 9 22 20 8 11 20 20 26 20 7 0 14 4 16 9 3 9 173 123 228 154 l32 17
-33 42 c-40 50 -259 269 -314 316 -68 55 -82 67 -105 82 -12 8 -28 20 -34 26
-14 13 -111 79 -186 126 -115 72 -388 200 -455 214 -11 2 -31 8 -45 13 -14 5
-38 13 -55 17 -16 4 -34 9 -40 10 -20 7 -151 35 -180 39 -16 3 -57 9 -90 14
-119 18 -441 5 -605 -24 -80 -14 -132 -25 -139 -29 -4 -3 -23 -8 -42 -11 -31
-5 -172 -47 -209 -62 -8 -3 -20 -7 -27 -8 -10 -3 -188 -67 -223 -82 -8 -3 -19
-7 -25 -9 -5 -2 -59 -21 -120 -42 -126 -46 -295 -89 -381 -98 -129 -14 -230
-11 -389 10 -121 17 -300 71 -697 210 -71 25 -128 43 -128 41 0 -2 -17 3 -37
12 -21 8 -39 15 -40 14 -2 0 -8 1 -15 3 -14 5 -65 17 -88 22 -8 2 -49 10 -90
19 -137 29 -213 37 -372 40 -86 2 -158 2 -160 0z"/>
</g>
</svg>
